<?xml version="1.0" encoding="UTF-8"?> <svg xmlns="http://www.w3.org/2000/svg" width="43" height="37" viewBox="0 0 43 37" fill="none"><path d="M18.9061 4.46388C20.0627 2.47355 22.9373 2.47355 24.0939 4.46388L40.3809 32.4927C41.5431 34.4927 40.1002 37 37.787 37H5.21295C2.89983 37 1.45692 34.4927 2.61908 32.4927L18.9061 4.46388Z" fill="#063D91"></path><path d="M22.2671 33.0479C20.9255 33.0479 19.6915 32.83 18.5652 32.3942C17.4389 31.9417 16.4617 31.3132 15.6335 30.5087C14.8054 29.6875 14.1594 28.7322 13.6957 27.6428C13.2319 26.5534 13 25.3551 13 24.0479C13 22.7406 13.2319 21.5423 13.6957 20.4529C14.1594 19.3635 14.8054 18.4166 15.6335 17.6121C16.4783 16.7909 17.4638 16.1624 18.5901 15.7266C19.7164 15.2741 20.9586 15.0479 22.3168 15.0479C23.6915 15.0479 24.9503 15.2741 26.0932 15.7266C27.236 16.1791 28.205 16.8579 29 17.7629L27.4596 19.3216C26.7474 18.6177 25.9689 18.1065 25.1242 17.7881C24.2961 17.4529 23.3934 17.2853 22.4161 17.2853C21.4224 17.2853 20.4948 17.4529 19.6335 17.7881C18.7888 18.1233 18.0518 18.5925 17.4224 19.1959C16.8095 19.7992 16.3292 20.5199 15.9814 21.3579C15.6501 22.1791 15.4845 23.0758 15.4845 24.0479C15.4845 25.0032 15.6501 25.8998 15.9814 26.7378C16.3292 27.559 16.8095 28.2797 17.4224 28.8998C18.0518 29.5032 18.7888 29.9724 19.6335 30.3076C20.4783 30.6428 21.3975 30.8104 22.3913 30.8104C23.3188 30.8104 24.205 30.668 25.0497 30.383C25.911 30.0814 26.706 29.587 27.4348 28.8998L28.8509 30.8104C27.9896 31.5479 26.9793 32.1093 25.8199 32.4948C24.677 32.8635 23.4928 33.0479 22.2671 33.0479ZM26.4658 30.4836V23.9473H28.8509V30.8104L26.4658 30.4836Z" fill="white"></path></svg> 