<?xml version="1.0" encoding="UTF-8"?> <svg xmlns="http://www.w3.org/2000/svg" width="127" height="115" viewBox="0 0 127 115" fill="none"><path d="M57.8613 9.40771C61.5583 3.00434 70.8011 3.00434 74.498 9.40771L121.437 90.7075C125.133 97.1108 120.512 105.115 113.118 105.115H19.2412C11.8472 105.115 7.22586 97.1109 10.9229 90.7075L57.8613 9.40771ZM67.5127 41.3062C63.374 41.3062 59.5883 41.9883 56.1562 43.3511C52.7242 44.6633 49.7206 46.5557 47.1465 49.0288C44.623 51.4514 42.6544 54.3029 41.2412 57.5835C39.828 60.8641 39.1221 64.473 39.1221 68.4097C39.1221 72.3463 39.8281 75.9554 41.2412 79.2358C42.6544 82.5163 44.623 85.3935 47.1465 87.8667C49.67 90.2893 52.6481 92.1827 56.0801 93.5454C59.5122 94.8576 63.2731 95.5132 67.3613 95.5132C71.096 95.5131 74.7051 94.9586 78.1875 93.8481C81.4995 92.76 84.4121 91.2057 86.9258 89.186L87.4238 88.7759V68.1069H80.1553V85.3521C78.7831 86.2547 77.3448 86.9678 75.8398 87.4888C73.2659 88.3466 70.5655 88.7759 67.7393 88.7759C64.711 88.7759 61.91 88.2706 59.3359 87.2612C56.7619 86.2519 54.5156 84.8389 52.5977 83.022C50.7303 81.1545 49.2669 78.9843 48.207 76.5112C47.1976 73.9877 46.6924 71.2866 46.6924 68.4097C46.6924 65.4824 47.1976 62.7821 48.207 60.3091C49.2669 57.7856 50.7303 55.6153 52.5977 53.7983C54.5156 51.9814 56.7619 50.5685 59.3359 49.5591C61.9605 48.5496 64.7871 48.0444 67.8154 48.0444C70.7931 48.0445 73.5439 48.5497 76.0674 49.5591C78.6414 50.5181 81.0132 52.0575 83.1836 54.1772L87.8779 49.4829C85.4553 46.7574 82.5021 44.7138 79.0195 43.3511C75.5371 41.9884 71.7016 41.3062 67.5127 41.3062Z" fill="#193C8C"></path></svg> 